<svg width="168" height="182" viewBox="0 0 168 182" fill="none" xmlns="http://www.w3.org/2000/svg">
<path d="M0 0H168V157C168 170.807 156.807 182 143 182H25C11.1929 182 0 170.807 0 157V0Z" fill="#C5D4DC"/>
<ellipse cx="83.6702" cy="60.32" rx="42.72" ry="44.8775" fill="#3C4F5C"/>
<path d="M105.151 60.5743L73.0065 79.8153L73.2168 40.9508L105.151 60.5743Z" fill="#DDE6E7"/>
<path d="M27.2614 131.818V120.182H31.8523C32.7348 120.182 33.4867 120.35 34.108 120.687C34.7292 121.021 35.2027 121.485 35.5284 122.08C35.858 122.67 36.0227 123.352 36.0227 124.125C36.0227 124.898 35.8561 125.58 35.5227 126.17C35.1894 126.761 34.7064 127.222 34.0739 127.551C33.4451 127.881 32.6837 128.045 31.7898 128.045H28.8636V126.074H31.392C31.8655 126.074 32.2557 125.992 32.5625 125.83C32.8731 125.663 33.1042 125.434 33.2557 125.142C33.411 124.847 33.4886 124.508 33.4886 124.125C33.4886 123.739 33.411 123.402 33.2557 123.114C33.1042 122.822 32.8731 122.597 32.5625 122.437C32.2519 122.275 31.858 122.193 31.3807 122.193H29.7216V131.818H27.2614ZM37.5753 131.818V123.091H39.9219V124.614H40.0128C40.1719 124.072 40.4389 123.663 40.8139 123.386C41.1889 123.106 41.6207 122.966 42.1094 122.966C42.2306 122.966 42.3613 122.973 42.5014 122.989C42.6416 123.004 42.7647 123.025 42.8707 123.051V125.199C42.7571 125.165 42.5999 125.134 42.3991 125.108C42.1984 125.081 42.0147 125.068 41.848 125.068C41.492 125.068 41.1738 125.146 40.8935 125.301C40.617 125.453 40.3973 125.665 40.2344 125.937C40.0753 126.21 39.9957 126.525 39.9957 126.881V131.818H37.5753ZM45.0739 132.375L43.9659 131.625L50.233 122.602L51.3523 123.352L45.0739 132.375ZM47.6591 132C46.7765 132 46.0133 131.812 45.3693 131.437C44.7292 131.059 44.2348 130.532 43.8864 129.858C43.5379 129.184 43.3636 128.398 43.3636 127.5C43.3636 126.598 43.5379 125.811 43.8864 125.136C44.2348 124.458 44.7292 123.932 45.3693 123.557C46.0133 123.178 46.7765 122.989 47.6591 122.989C48.5417 122.989 49.303 123.178 49.9432 123.557C50.5871 123.932 51.0833 124.458 51.4318 125.136C51.7803 125.811 51.9545 126.598 51.9545 127.5C51.9545 128.398 51.7803 129.184 51.4318 129.858C51.0833 130.532 50.5871 131.059 49.9432 131.437C49.303 131.812 48.5417 132 47.6591 132ZM47.6705 130.125C48.072 130.125 48.4072 130.011 48.6761 129.784C48.9451 129.553 49.1477 129.239 49.2841 128.841C49.4242 128.443 49.4943 127.992 49.4943 127.489C49.4943 126.977 49.4242 126.523 49.2841 126.125C49.1477 125.727 48.9451 125.413 48.6761 125.182C48.4072 124.951 48.072 124.835 47.6705 124.835C47.2652 124.835 46.9242 124.951 46.6477 125.182C46.375 125.413 46.1686 125.727 46.0284 126.125C45.892 126.523 45.8239 126.977 45.8239 127.489C45.8239 127.992 45.892 128.443 46.0284 128.841C46.1686 129.239 46.375 129.553 46.6477 129.784C46.9242 130.011 47.2652 130.125 47.6705 130.125ZM61.3835 123.091L58.3324 131.818H55.6051L52.554 123.091H55.1108L56.9233 129.335H57.0142L58.821 123.091H61.3835ZM70.3026 131.989C69.4048 131.989 68.6321 131.807 67.9844 131.443C67.3404 131.076 66.8442 130.557 66.4957 129.886C66.1473 129.212 65.973 128.415 65.973 127.494C65.973 126.597 66.1473 125.809 66.4957 125.131C66.8442 124.453 67.3348 123.924 67.9673 123.545C68.6037 123.167 69.3499 122.977 70.206 122.977C70.7817 122.977 71.3177 123.07 71.8139 123.256C72.3139 123.437 72.7495 123.712 73.1207 124.08C73.4957 124.447 73.7874 124.909 73.9957 125.466C74.2041 126.019 74.3082 126.667 74.3082 127.409V128.074H66.9389V126.574H72.0298C72.0298 126.225 71.9541 125.917 71.8026 125.648C71.651 125.379 71.4408 125.169 71.1719 125.017C70.9067 124.862 70.598 124.784 70.2457 124.784C69.8783 124.784 69.5526 124.869 69.2685 125.04C68.9882 125.206 68.7685 125.432 68.6094 125.716C68.4503 125.996 68.3688 126.309 68.3651 126.653V128.08C68.3651 128.511 68.4446 128.884 68.6037 129.199C68.7666 129.513 68.9957 129.756 69.2912 129.926C69.5866 130.097 69.937 130.182 70.3423 130.182C70.6113 130.182 70.8575 130.144 71.081 130.068C71.3045 129.992 71.4957 129.879 71.6548 129.727C71.8139 129.576 71.9351 129.39 72.0185 129.17L74.2571 129.318C74.1435 129.856 73.9105 130.326 73.5582 130.727C73.2098 131.125 72.759 131.436 72.206 131.659C71.6567 131.879 71.0223 131.989 70.3026 131.989ZM78.3082 126.773V131.818H75.8878V123.091H78.1946V124.631H78.2969C78.4901 124.123 78.8139 123.722 79.2685 123.426C79.723 123.127 80.2741 122.977 80.9219 122.977C81.5279 122.977 82.0563 123.11 82.5071 123.375C82.9579 123.64 83.3082 124.019 83.5582 124.511C83.8082 125 83.9332 125.583 83.9332 126.261V131.818H81.5128V126.693C81.5166 126.159 81.3802 125.742 81.1037 125.443C80.8272 125.14 80.4465 124.989 79.9616 124.989C79.6359 124.989 79.348 125.059 79.098 125.199C78.8518 125.339 78.6586 125.544 78.5185 125.812C78.3821 126.078 78.312 126.398 78.3082 126.773ZM91.9645 120.182V131.818H89.544V120.182H91.9645ZM95.3977 135.091C95.0909 135.091 94.803 135.066 94.5341 135.017C94.2689 134.972 94.0492 134.913 93.875 134.841L94.4205 133.034C94.7045 133.121 94.9602 133.169 95.1875 133.176C95.4186 133.184 95.6174 133.131 95.7841 133.017C95.9545 132.903 96.0928 132.71 96.1989 132.437L96.3409 132.068L93.2102 123.091H95.7557L97.5625 129.5H97.6534L99.4773 123.091H102.04L98.6477 132.761C98.4848 133.231 98.2633 133.64 97.983 133.989C97.7064 134.341 97.3561 134.612 96.9318 134.801C96.5076 134.994 95.9962 135.091 95.3977 135.091ZM106.213 131.96C105.55 131.96 104.95 131.79 104.412 131.449C103.878 131.104 103.454 130.598 103.139 129.932C102.829 129.261 102.673 128.439 102.673 127.466C102.673 126.466 102.834 125.634 103.156 124.972C103.478 124.305 103.906 123.807 104.44 123.477C104.978 123.144 105.567 122.977 106.207 122.977C106.696 122.977 107.103 123.061 107.429 123.227C107.759 123.39 108.024 123.595 108.224 123.841C108.429 124.083 108.584 124.322 108.69 124.557H108.764V120.182H111.179V131.818H108.793V130.42H108.69C108.577 130.663 108.416 130.903 108.207 131.142C108.003 131.377 107.736 131.572 107.406 131.727C107.08 131.883 106.683 131.96 106.213 131.96ZM106.98 130.034C107.37 130.034 107.7 129.928 107.969 129.716C108.241 129.5 108.45 129.199 108.594 128.812C108.741 128.426 108.815 127.973 108.815 127.455C108.815 126.936 108.743 126.485 108.599 126.102C108.455 125.72 108.247 125.424 107.974 125.216C107.702 125.008 107.37 124.903 106.98 124.903C106.582 124.903 106.247 125.011 105.974 125.227C105.702 125.443 105.495 125.742 105.355 126.125C105.215 126.508 105.145 126.951 105.145 127.455C105.145 127.962 105.215 128.411 105.355 128.801C105.499 129.187 105.705 129.491 105.974 129.71C106.247 129.926 106.582 130.034 106.98 130.034ZM113.169 131.818V123.091H115.516V124.614H115.607C115.766 124.072 116.033 123.663 116.408 123.386C116.783 123.106 117.214 122.966 117.703 122.966C117.824 122.966 117.955 122.973 118.095 122.989C118.235 123.004 118.358 123.025 118.464 123.051V125.199C118.351 125.165 118.194 125.134 117.993 125.108C117.792 125.081 117.608 125.068 117.442 125.068C117.086 125.068 116.768 125.146 116.487 125.301C116.211 125.453 115.991 125.665 115.828 125.937C115.669 126.21 115.589 126.525 115.589 126.881V131.818H113.169ZM123.287 131.989C122.389 131.989 121.616 131.807 120.969 131.443C120.325 131.076 119.829 130.557 119.48 129.886C119.132 129.212 118.957 128.415 118.957 127.494C118.957 126.597 119.132 125.809 119.48 125.131C119.829 124.453 120.319 123.924 120.952 123.545C121.588 123.167 122.334 122.977 123.19 122.977C123.766 122.977 124.302 123.07 124.798 123.256C125.298 123.437 125.734 123.712 126.105 124.08C126.48 124.447 126.772 124.909 126.98 125.466C127.188 126.019 127.293 126.667 127.293 127.409V128.074H119.923V126.574H125.014C125.014 126.225 124.938 125.917 124.787 125.648C124.635 125.379 124.425 125.169 124.156 125.017C123.891 124.862 123.582 124.784 123.23 124.784C122.863 124.784 122.537 124.869 122.253 125.04C121.973 125.206 121.753 125.432 121.594 125.716C121.435 125.996 121.353 126.309 121.349 126.653V128.08C121.349 128.511 121.429 128.884 121.588 129.199C121.751 129.513 121.98 129.756 122.276 129.926C122.571 130.097 122.921 130.182 123.327 130.182C123.596 130.182 123.842 130.144 124.065 130.068C124.289 129.992 124.48 129.879 124.639 129.727C124.798 129.576 124.92 129.39 125.003 129.17L127.241 129.318C127.128 129.856 126.895 130.326 126.543 130.727C126.194 131.125 125.743 131.436 125.19 131.659C124.641 131.879 124.007 131.989 123.287 131.989ZM128.872 123.091H131.293V132.25C131.293 132.924 131.16 133.47 130.895 133.886C130.63 134.303 130.249 134.608 129.753 134.801C129.26 134.994 128.671 135.091 127.986 135.091C127.902 135.091 127.823 135.089 127.747 135.085C127.668 135.085 127.584 135.083 127.497 135.08V133.187C127.562 133.191 127.618 133.193 127.668 133.193C127.713 133.197 127.762 133.199 127.815 133.199C128.205 133.199 128.478 133.116 128.634 132.949C128.793 132.786 128.872 132.54 128.872 132.21V123.091ZM130.077 121.966C129.721 121.966 129.414 121.847 129.156 121.608C128.899 121.366 128.77 121.076 128.77 120.739C128.77 120.405 128.899 120.119 129.156 119.881C129.414 119.638 129.721 119.517 130.077 119.517C130.44 119.517 130.749 119.638 131.003 119.881C131.26 120.119 131.389 120.405 131.389 120.739C131.389 121.076 131.26 121.366 131.003 121.608C130.749 121.847 130.44 121.966 130.077 121.966ZM140.493 125.58L138.277 125.716C138.239 125.527 138.158 125.356 138.033 125.205C137.908 125.049 137.743 124.926 137.538 124.835C137.338 124.741 137.097 124.693 136.817 124.693C136.442 124.693 136.125 124.773 135.868 124.932C135.61 125.087 135.482 125.295 135.482 125.557C135.482 125.765 135.565 125.941 135.732 126.085C135.898 126.229 136.184 126.345 136.589 126.432L138.169 126.75C139.018 126.924 139.65 127.205 140.067 127.591C140.483 127.977 140.692 128.485 140.692 129.114C140.692 129.686 140.523 130.187 140.186 130.619C139.853 131.051 139.394 131.388 138.811 131.631C138.232 131.869 137.563 131.989 136.805 131.989C135.65 131.989 134.73 131.748 134.044 131.267C133.362 130.782 132.963 130.123 132.845 129.29L135.226 129.165C135.298 129.517 135.472 129.786 135.749 129.972C136.025 130.153 136.379 130.244 136.811 130.244C137.235 130.244 137.576 130.163 137.834 130C138.095 129.833 138.228 129.619 138.232 129.358C138.228 129.138 138.135 128.958 137.953 128.818C137.771 128.674 137.491 128.564 137.112 128.489L135.601 128.187C134.749 128.017 134.114 127.722 133.697 127.301C133.285 126.881 133.078 126.345 133.078 125.693C133.078 125.133 133.23 124.65 133.533 124.244C133.839 123.839 134.269 123.527 134.822 123.307C135.379 123.087 136.031 122.977 136.777 122.977C137.879 122.977 138.747 123.21 139.379 123.676C140.016 124.142 140.387 124.777 140.493 125.58ZM146.193 131.989C145.295 131.989 144.523 131.807 143.875 131.443C143.231 131.076 142.735 130.557 142.386 129.886C142.038 129.212 141.864 128.415 141.864 127.494C141.864 126.597 142.038 125.809 142.386 125.131C142.735 124.453 143.225 123.924 143.858 123.545C144.494 123.167 145.241 122.977 146.097 122.977C146.672 122.977 147.208 123.07 147.705 123.256C148.205 123.437 148.64 123.712 149.011 124.08C149.386 124.447 149.678 124.909 149.886 125.466C150.095 126.019 150.199 126.667 150.199 127.409V128.074H142.83V126.574H147.92C147.92 126.225 147.845 125.917 147.693 125.648C147.542 125.379 147.331 125.169 147.062 125.017C146.797 124.862 146.489 124.784 146.136 124.784C145.769 124.784 145.443 124.869 145.159 125.04C144.879 125.206 144.659 125.432 144.5 125.716C144.341 125.996 144.259 126.309 144.256 126.653V128.08C144.256 128.511 144.335 128.884 144.494 129.199C144.657 129.513 144.886 129.756 145.182 129.926C145.477 130.097 145.828 130.182 146.233 130.182C146.502 130.182 146.748 130.144 146.972 130.068C147.195 129.992 147.386 129.879 147.545 129.727C147.705 129.576 147.826 129.39 147.909 129.17L150.148 129.318C150.034 129.856 149.801 130.326 149.449 130.727C149.1 131.125 148.65 131.436 148.097 131.659C147.547 131.879 146.913 131.989 146.193 131.989Z" fill="#394651"/>
<path d="M43.0341 151.727C43.0341 153.261 42.7571 154.587 42.2031 155.705C41.6491 156.822 40.8892 157.684 39.9233 158.29C38.9574 158.896 37.8542 159.199 36.6136 159.199C35.3731 159.199 34.2699 158.896 33.304 158.29C32.3381 157.684 31.5781 156.822 31.0241 155.705C30.4702 154.587 30.1932 153.261 30.1932 151.727C30.1932 150.193 30.4702 148.867 31.0241 147.75C31.5781 146.633 32.3381 145.771 33.304 145.165C34.2699 144.559 35.3731 144.256 36.6136 144.256C37.8542 144.256 38.9574 144.559 39.9233 145.165C40.8892 145.771 41.6491 146.633 42.2031 147.75C42.7571 148.867 43.0341 150.193 43.0341 151.727ZM41.3295 151.727C41.3295 150.468 41.1188 149.405 40.6974 148.538C40.2808 147.672 39.715 147.016 39 146.571C38.2898 146.126 37.4943 145.903 36.6136 145.903C35.733 145.903 34.9351 146.126 34.2202 146.571C33.5099 147.016 32.9441 147.672 32.5227 148.538C32.1061 149.405 31.8977 150.468 31.8977 151.727C31.8977 152.987 32.1061 154.05 32.5227 154.916C32.9441 155.783 33.5099 156.438 34.2202 156.884C34.9351 157.329 35.733 157.551 36.6136 157.551C37.4943 157.551 38.2898 157.329 39 156.884C39.715 156.438 40.2808 155.783 40.6974 154.916C41.1188 154.05 41.3295 152.987 41.3295 151.727ZM50.2003 159.227C49.1776 159.227 48.2969 158.986 47.5582 158.503C46.8196 158.02 46.2514 157.355 45.8537 156.507C45.456 155.66 45.2571 154.691 45.2571 153.602C45.2571 152.494 45.4607 151.517 45.8679 150.669C46.2798 149.817 46.8527 149.152 47.5866 148.673C48.3253 148.19 49.187 147.949 50.1719 147.949C50.9389 147.949 51.6302 148.091 52.2457 148.375C52.8613 148.659 53.3655 149.057 53.7585 149.568C54.1515 150.08 54.3954 150.676 54.4901 151.358H52.8139C52.6861 150.861 52.402 150.42 51.9616 150.037C51.526 149.649 50.9389 149.455 50.2003 149.455C49.5469 149.455 48.974 149.625 48.4815 149.966C47.9938 150.302 47.6127 150.778 47.3381 151.393C47.0682 152.004 46.9332 152.722 46.9332 153.545C46.9332 154.388 47.0658 155.122 47.331 155.747C47.6009 156.372 47.9796 156.857 48.4673 157.203C48.9598 157.549 49.5374 157.722 50.2003 157.722C50.6359 157.722 51.0312 157.646 51.3864 157.494C51.7415 157.343 52.0421 157.125 52.2884 156.841C52.5346 156.557 52.7098 156.216 52.8139 155.818H54.4901C54.3954 156.462 54.161 157.042 53.7869 157.558C53.4176 158.07 52.9276 158.477 52.3168 158.78C51.7107 159.078 51.0052 159.227 50.2003 159.227ZM61.5142 159.227C60.4631 159.227 59.5563 158.995 58.794 158.531C58.0365 158.062 57.4517 157.409 57.0398 156.571C56.6326 155.728 56.429 154.748 56.429 153.631C56.429 152.513 56.6326 151.528 57.0398 150.676C57.4517 149.819 58.0246 149.152 58.7585 148.673C59.4972 148.19 60.3589 147.949 61.3438 147.949C61.9119 147.949 62.473 148.044 63.027 148.233C63.581 148.422 64.0852 148.73 64.5398 149.156C64.9943 149.578 65.3565 150.136 65.6264 150.832C65.8963 151.528 66.0312 152.385 66.0312 153.403V154.114H57.6222V152.665H64.3267C64.3267 152.049 64.2036 151.5 63.9574 151.017C63.7159 150.534 63.3703 150.153 62.9205 149.874C62.4754 149.594 61.9498 149.455 61.3438 149.455C60.6761 149.455 60.0985 149.62 59.6108 149.952C59.1278 150.278 58.7562 150.705 58.4957 151.23C58.2353 151.756 58.1051 152.319 58.1051 152.92V153.886C58.1051 154.71 58.2472 155.409 58.5312 155.982C58.8201 156.55 59.2202 156.983 59.7315 157.281C60.2429 157.575 60.8371 157.722 61.5142 157.722C61.9545 157.722 62.3523 157.66 62.7074 157.537C63.0672 157.409 63.3774 157.22 63.6378 156.969C63.8982 156.713 64.0994 156.396 64.2415 156.017L65.8608 156.472C65.6903 157.021 65.4039 157.504 65.0014 157.92C64.599 158.332 64.1018 158.654 63.5099 158.886C62.9181 159.114 62.2528 159.227 61.5142 159.227ZM71.7912 159.256C71.0999 159.256 70.4725 159.125 69.9091 158.865C69.3456 158.6 68.8982 158.219 68.5668 157.722C68.2353 157.22 68.0696 156.614 68.0696 155.903C68.0696 155.278 68.1927 154.772 68.4389 154.384C68.6851 153.991 69.0142 153.683 69.4261 153.46C69.8381 153.238 70.2926 153.072 70.7898 152.963C71.2917 152.849 71.7959 152.759 72.3026 152.693C72.9654 152.608 73.5028 152.544 73.9148 152.501C74.3314 152.454 74.6345 152.376 74.8239 152.267C75.018 152.158 75.1151 151.969 75.1151 151.699V151.642C75.1151 150.941 74.9233 150.397 74.5398 150.009C74.161 149.62 73.5857 149.426 72.8139 149.426C72.0137 149.426 71.3864 149.601 70.9318 149.952C70.4773 150.302 70.1577 150.676 69.973 151.074L68.3821 150.506C68.6662 149.843 69.045 149.327 69.5185 148.957C69.9967 148.583 70.5175 148.323 71.081 148.176C71.6491 148.025 72.2079 147.949 72.7571 147.949C73.1075 147.949 73.5099 147.991 73.9645 148.077C74.4238 148.157 74.8665 148.325 75.2926 148.581C75.7235 148.837 76.081 149.223 76.3651 149.739C76.6491 150.255 76.7912 150.946 76.7912 151.812V159H75.1151V157.523H75.0298C74.9162 157.759 74.7268 158.013 74.4616 158.283C74.1965 158.553 73.8438 158.782 73.4034 158.972C72.9631 159.161 72.4257 159.256 71.7912 159.256ZM72.0469 157.75C72.7098 157.75 73.2685 157.62 73.723 157.359C74.1823 157.099 74.5279 156.763 74.7599 156.351C74.9967 155.939 75.1151 155.506 75.1151 155.051V153.517C75.044 153.602 74.8878 153.68 74.6463 153.751C74.4096 153.818 74.1349 153.877 73.8224 153.929C73.5147 153.976 73.214 154.019 72.9205 154.057C72.6316 154.09 72.3973 154.118 72.2173 154.142C71.7817 154.199 71.3745 154.291 70.9957 154.419C70.6217 154.542 70.3187 154.729 70.0866 154.98C69.8594 155.226 69.7457 155.562 69.7457 155.989C69.7457 156.571 69.9612 157.011 70.392 157.31C70.8277 157.603 71.3793 157.75 72.0469 157.75ZM81.5266 152.438V159H79.8505V148.091H81.4698V149.795H81.6119C81.8675 149.241 82.2558 148.796 82.7766 148.46C83.2975 148.119 83.9698 147.949 84.7937 147.949C85.5323 147.949 86.1786 148.1 86.7326 148.403C87.2866 148.702 87.7174 149.156 88.0252 149.767C88.333 150.373 88.4869 151.14 88.4869 152.068V159H86.8107V152.182C86.8107 151.325 86.5882 150.657 86.1431 150.179C85.698 149.696 85.0872 149.455 84.3107 149.455C83.7757 149.455 83.2975 149.571 82.8761 149.803C82.4594 150.035 82.1303 150.373 81.8888 150.818C81.6474 151.263 81.5266 151.803 81.5266 152.438ZM101.805 159.199C100.83 159.199 99.9683 159.026 99.2202 158.68C98.4768 158.33 97.8968 157.849 97.4801 157.239C97.0634 156.623 96.8575 155.922 96.8622 155.136C96.8575 154.521 96.9782 153.953 97.2244 153.432C97.4706 152.906 97.8068 152.468 98.233 152.118C98.6638 151.763 99.1444 151.538 99.6747 151.443V151.358C98.9787 151.178 98.4247 150.787 98.0128 150.186C97.6009 149.58 97.3973 148.891 97.402 148.119C97.3973 147.381 97.5843 146.72 97.9631 146.138C98.3419 145.555 98.8627 145.096 99.5256 144.76C100.193 144.424 100.953 144.256 101.805 144.256C102.648 144.256 103.401 144.424 104.064 144.76C104.727 145.096 105.248 145.555 105.626 146.138C106.01 146.72 106.204 147.381 106.209 148.119C106.204 148.891 105.993 149.58 105.577 150.186C105.165 150.787 104.618 151.178 103.936 151.358V151.443C104.462 151.538 104.935 151.763 105.357 152.118C105.778 152.468 106.114 152.906 106.365 153.432C106.616 153.953 106.744 154.521 106.749 155.136C106.744 155.922 106.531 156.623 106.109 157.239C105.693 157.849 105.113 158.33 104.369 158.68C103.631 159.026 102.776 159.199 101.805 159.199ZM101.805 157.636C102.464 157.636 103.032 157.53 103.51 157.317C103.988 157.104 104.357 156.803 104.618 156.415C104.878 156.027 105.011 155.572 105.016 155.051C105.011 154.502 104.869 154.017 104.589 153.595C104.31 153.174 103.929 152.842 103.446 152.601C102.968 152.359 102.421 152.239 101.805 152.239C101.185 152.239 100.631 152.359 100.143 152.601C99.6605 152.842 99.2794 153.174 99 153.595C98.7254 154.017 98.5904 154.502 98.5952 155.051C98.5904 155.572 98.7159 156.027 98.9716 156.415C99.232 156.803 99.6037 157.104 100.087 157.317C100.57 157.53 101.143 157.636 101.805 157.636ZM101.805 150.733C102.326 150.733 102.788 150.629 103.19 150.42C103.598 150.212 103.917 149.921 104.149 149.547C104.381 149.173 104.5 148.735 104.504 148.233C104.5 147.741 104.384 147.312 104.156 146.947C103.929 146.578 103.614 146.294 103.212 146.095C102.809 145.892 102.34 145.79 101.805 145.79C101.261 145.79 100.785 145.892 100.378 146.095C99.9706 146.294 99.6558 146.578 99.4332 146.947C99.2107 147.312 99.1018 147.741 99.1065 148.233C99.1018 148.735 99.2131 149.173 99.4403 149.547C99.6723 149.921 99.992 150.212 100.399 150.42C100.806 150.629 101.275 150.733 101.805 150.733ZM110.721 157.139C110.37 157.139 110.069 157.014 109.819 156.763C109.568 156.512 109.442 156.211 109.442 155.861C109.442 155.51 109.568 155.21 109.819 154.959C110.069 154.708 110.37 154.582 110.721 154.582C111.071 154.582 111.372 154.708 111.623 154.959C111.873 155.21 111.999 155.51 111.999 155.861C111.999 156.093 111.94 156.306 111.821 156.5C111.708 156.694 111.554 156.85 111.36 156.969C111.17 157.082 110.957 157.139 110.721 157.139ZM110.721 149.781C110.37 149.781 110.069 149.656 109.819 149.405C109.568 149.154 109.442 148.853 109.442 148.503C109.442 148.152 109.568 147.852 109.819 147.601C110.069 147.35 110.37 147.224 110.721 147.224C111.071 147.224 111.372 147.35 111.623 147.601C111.873 147.852 111.999 148.152 111.999 148.503C111.999 148.735 111.94 148.948 111.821 149.142C111.708 149.336 111.554 149.492 111.36 149.611C111.17 149.724 110.957 149.781 110.721 149.781ZM119.723 159.199C118.653 159.199 117.741 158.908 116.988 158.325C116.235 157.738 115.66 156.888 115.262 155.776C114.865 154.658 114.666 153.309 114.666 151.727C114.666 150.155 114.865 148.813 115.262 147.7C115.665 146.583 116.243 145.731 116.995 145.143C117.753 144.552 118.662 144.256 119.723 144.256C120.783 144.256 121.69 144.552 122.443 145.143C123.2 145.731 123.778 146.583 124.176 147.7C124.578 148.813 124.779 150.155 124.779 151.727C124.779 153.309 124.581 154.658 124.183 155.776C123.785 156.888 123.21 157.738 122.457 158.325C121.704 158.908 120.793 159.199 119.723 159.199ZM119.723 157.636C120.783 157.636 121.607 157.125 122.194 156.102C122.781 155.08 123.075 153.621 123.075 151.727C123.075 150.468 122.94 149.395 122.67 148.51C122.405 147.625 122.021 146.95 121.52 146.486C121.022 146.022 120.423 145.79 119.723 145.79C118.672 145.79 117.85 146.308 117.258 147.345C116.666 148.377 116.37 149.838 116.37 151.727C116.37 152.987 116.503 154.057 116.768 154.938C117.033 155.818 117.414 156.488 117.912 156.947C118.413 157.407 119.017 157.636 119.723 157.636ZM132.109 144.256C132.706 144.26 133.302 144.374 133.899 144.597C134.495 144.819 135.04 145.188 135.532 145.705C136.025 146.216 136.42 146.914 136.718 147.8C137.017 148.685 137.166 149.795 137.166 151.131C137.166 152.423 137.043 153.571 136.797 154.575C136.555 155.574 136.205 156.417 135.745 157.104C135.291 157.79 134.737 158.311 134.083 158.666C133.435 159.021 132.701 159.199 131.882 159.199C131.067 159.199 130.341 159.038 129.701 158.716C129.067 158.389 128.546 157.937 128.139 157.359C127.736 156.777 127.478 156.102 127.365 155.335H129.098C129.254 156.003 129.564 156.554 130.028 156.99C130.497 157.421 131.115 157.636 131.882 157.636C133.004 157.636 133.889 157.146 134.538 156.166C135.191 155.186 135.518 153.801 135.518 152.011H135.404C135.139 152.409 134.824 152.752 134.46 153.041C134.095 153.33 133.69 153.553 133.245 153.709C132.8 153.865 132.327 153.943 131.825 153.943C130.992 153.943 130.227 153.737 129.531 153.325C128.84 152.909 128.286 152.338 127.869 151.614C127.457 150.884 127.251 150.051 127.251 149.114C127.251 148.223 127.45 147.409 127.848 146.67C128.25 145.927 128.814 145.335 129.538 144.895C130.267 144.455 131.124 144.241 132.109 144.256ZM132.109 145.818C131.512 145.818 130.975 145.967 130.497 146.266C130.023 146.559 129.647 146.957 129.368 147.459C129.093 147.956 128.956 148.508 128.956 149.114C128.956 149.72 129.088 150.271 129.353 150.768C129.623 151.261 129.99 151.654 130.454 151.947C130.923 152.236 131.456 152.381 132.052 152.381C132.502 152.381 132.921 152.293 133.309 152.118C133.698 151.938 134.036 151.694 134.325 151.386C134.618 151.074 134.848 150.721 135.014 150.328C135.18 149.93 135.262 149.516 135.262 149.085C135.262 148.517 135.125 147.984 134.85 147.487C134.581 146.99 134.207 146.588 133.728 146.28C133.255 145.972 132.715 145.818 132.109 145.818Z" fill="#537487"/>
</svg>
